<mxfile host="65bd71144e">
    <diagram id="xjRasg4oQ_YAl4rNodnV" name="Page-1">
        <mxGraphModel dx="2036" dy="589" grid="1" gridSize="10" guides="1" tooltips="1" connect="1" arrows="1" fold="1" page="1" pageScale="1" pageWidth="850" pageHeight="1100" math="0" shadow="0">
            <root>
                <mxCell id="0"/>
                <mxCell id="1" parent="0"/>
                <mxCell id="vQ-B-wtypdKm5OWItc5w-111" value="" style="shape=note;whiteSpace=wrap;html=1;backgroundOutline=1;darkOpacity=0.05;fontFamily=Helvetica;fontSize=14;fillColor=#f5f5f5;fontColor=#333333;strokeColor=#666666;" parent="1" vertex="1">
                    <mxGeometry x="1380" y="487" width="200" height="203" as="geometry"/>
                </mxCell>
                <mxCell id="vQ-B-wtypdKm5OWItc5w-81" value="" style="shape=note;whiteSpace=wrap;html=1;backgroundOutline=1;darkOpacity=0.05;size=15;fillColor=#f5f5f5;fontColor=#333333;strokeColor=#666666;" parent="1" vertex="1">
                    <mxGeometry x="67" y="275" width="205" height="50" as="geometry"/>
                </mxCell>
                <mxCell id="vQ-B-wtypdKm5OWItc5w-80" value="" style="shape=note;whiteSpace=wrap;html=1;backgroundOutline=1;darkOpacity=0.05;size=15;fillColor=#f5f5f5;fontColor=#333333;strokeColor=#666666;" parent="1" vertex="1">
                    <mxGeometry x="160" y="623" width="210" height="257" as="geometry"/>
                </mxCell>
                <mxCell id="vQ-B-wtypdKm5OWItc5w-75" value="" style="shape=note;whiteSpace=wrap;html=1;backgroundOutline=1;darkOpacity=0.05;size=15;fillColor=#f5f5f5;fontColor=#333333;strokeColor=#666666;" parent="1" vertex="1">
                    <mxGeometry x="850" y="817" width="240" height="60" as="geometry"/>
                </mxCell>
                <mxCell id="vQ-B-wtypdKm5OWItc5w-74" value="" style="shape=note;whiteSpace=wrap;html=1;backgroundOutline=1;darkOpacity=0.05;size=15;fillColor=#f5f5f5;fontColor=#333333;strokeColor=#666666;" parent="1" vertex="1">
                    <mxGeometry x="827.5" y="626" width="210" height="50" as="geometry"/>
                </mxCell>
                <mxCell id="vQ-B-wtypdKm5OWItc5w-92" style="edgeStyle=orthogonalEdgeStyle;rounded=0;orthogonalLoop=1;jettySize=auto;html=1;exitX=0;exitY=0.25;exitDx=0;exitDy=0;fontSize=14;endArrow=none;endFill=0;" parent="1" source="vQ-B-wtypdKm5OWItc5w-1" edge="1">
                    <mxGeometry relative="1" as="geometry">
                        <mxPoint x="360" y="220" as="targetPoint"/>
                    </mxGeometry>
                </mxCell>
                <mxCell id="vQ-B-wtypdKm5OWItc5w-95" style="edgeStyle=orthogonalEdgeStyle;shape=connector;rounded=0;orthogonalLoop=1;jettySize=auto;html=1;exitX=0.25;exitY=1;exitDx=0;exitDy=0;entryX=0.75;entryY=1;entryDx=0;entryDy=0;labelBackgroundColor=default;strokeColor=default;fontFamily=Helvetica;fontSize=14;fontColor=default;endArrow=none;endFill=0;" parent="1" source="vQ-B-wtypdKm5OWItc5w-1" target="vQ-B-wtypdKm5OWItc5w-3" edge="1">
                    <mxGeometry relative="1" as="geometry">
                        <Array as="points">
                            <mxPoint x="480" y="930"/>
                            <mxPoint x="1260" y="930"/>
                        </Array>
                    </mxGeometry>
                </mxCell>
                <mxCell id="vQ-B-wtypdKm5OWItc5w-96" style="edgeStyle=orthogonalEdgeStyle;shape=connector;rounded=0;orthogonalLoop=1;jettySize=auto;html=1;exitX=0.75;exitY=1;exitDx=0;exitDy=0;entryX=0.25;entryY=1;entryDx=0;entryDy=0;labelBackgroundColor=default;strokeColor=default;fontFamily=Helvetica;fontSize=14;fontColor=default;endArrow=none;endFill=0;" parent="1" source="vQ-B-wtypdKm5OWItc5w-1" target="vQ-B-wtypdKm5OWItc5w-3" edge="1">
                    <mxGeometry relative="1" as="geometry">
                        <Array as="points">
                            <mxPoint x="600" y="720"/>
                            <mxPoint x="1140" y="720"/>
                        </Array>
                    </mxGeometry>
                </mxCell>
                <mxCell id="vQ-B-wtypdKm5OWItc5w-97" style="edgeStyle=orthogonalEdgeStyle;shape=connector;rounded=0;orthogonalLoop=1;jettySize=auto;html=1;exitX=1;exitY=0.75;exitDx=0;exitDy=0;entryX=0;entryY=0.75;entryDx=0;entryDy=0;labelBackgroundColor=default;strokeColor=default;fontFamily=Helvetica;fontSize=14;fontColor=default;endArrow=none;endFill=0;" parent="1" source="vQ-B-wtypdKm5OWItc5w-1" target="vQ-B-wtypdKm5OWItc5w-3" edge="1">
                    <mxGeometry relative="1" as="geometry"/>
                </mxCell>
                <mxCell id="vQ-B-wtypdKm5OWItc5w-98" style="edgeStyle=orthogonalEdgeStyle;shape=connector;rounded=0;orthogonalLoop=1;jettySize=auto;html=1;exitX=1;exitY=0.25;exitDx=0;exitDy=0;entryX=0;entryY=0.25;entryDx=0;entryDy=0;labelBackgroundColor=default;strokeColor=default;fontFamily=Helvetica;fontSize=14;fontColor=default;endArrow=none;endFill=0;" parent="1" source="vQ-B-wtypdKm5OWItc5w-1" target="vQ-B-wtypdKm5OWItc5w-3" edge="1">
                    <mxGeometry relative="1" as="geometry"/>
                </mxCell>
                <mxCell id="vQ-B-wtypdKm5OWItc5w-102" style="edgeStyle=orthogonalEdgeStyle;shape=connector;rounded=0;orthogonalLoop=1;jettySize=auto;html=1;exitX=0.25;exitY=0;exitDx=0;exitDy=0;entryX=0.25;entryY=1;entryDx=0;entryDy=0;labelBackgroundColor=default;strokeColor=default;fontFamily=Helvetica;fontSize=14;fontColor=default;endArrow=none;endFill=0;" parent="1" source="vQ-B-wtypdKm5OWItc5w-1" target="vQ-B-wtypdKm5OWItc5w-7" edge="1">
                    <mxGeometry relative="1" as="geometry"/>
                </mxCell>
                <mxCell id="vQ-B-wtypdKm5OWItc5w-1" value="" style="fillColor=none;strokeColor=none;pointerEvents=0;fontStyle=0;html=1;whiteSpace=wrap;container=1;collapsible=0;childLayout=stackLayout;resizeParent=1;dropTarget=0;fontSize=13;spacing=0;strokeOpacity=100;rounded=1;absoluteArcSize=1;arcSize=9;strokeWidth=1.5;" parent="1" vertex="1">
                    <mxGeometry x="420" y="375" width="240" height="223.75" as="geometry"/>
                </mxCell>
                <mxCell id="vQ-B-wtypdKm5OWItc5w-2" value="Event" style="swimlane;html=1;whiteSpace=wrap;connectable=0;fontStyle=0;startSize=30;dropTarget=0;rounded=0;spacing=0;strokeColor=#3a414a;strokeOpacity=100;strokeWidth=1.5;container=1;pointerEvents=0;collapsible=0;recursiveResize=0;fontSize=16.7;fontColor=#3a414a;" parent="vQ-B-wtypdKm5OWItc5w-1" vertex="1">
                    <mxGeometry width="240" height="223.75" as="geometry"/>
                </mxCell>
                <mxCell id="vQ-B-wtypdKm5OWItc5w-109" style="edgeStyle=orthogonalEdgeStyle;shape=connector;rounded=0;orthogonalLoop=1;jettySize=auto;html=1;exitX=1;exitY=0.75;exitDx=0;exitDy=0;labelBackgroundColor=default;strokeColor=default;fontFamily=Helvetica;fontSize=14;fontColor=default;endArrow=none;endFill=0;entryX=0;entryY=0.25;entryDx=0;entryDy=0;dashed=1;" parent="1" source="vQ-B-wtypdKm5OWItc5w-3" edge="1">
                    <mxGeometry relative="1" as="geometry">
                        <mxPoint x="1380" y="542.25" as="targetPoint"/>
                    </mxGeometry>
                </mxCell>
                <mxCell id="vQ-B-wtypdKm5OWItc5w-127" style="edgeStyle=orthogonalEdgeStyle;shape=connector;rounded=0;orthogonalLoop=1;jettySize=auto;html=1;exitX=0.25;exitY=0;exitDx=0;exitDy=0;labelBackgroundColor=default;strokeColor=default;fontFamily=Helvetica;fontSize=14;fontColor=default;endArrow=none;endFill=0;" parent="1" source="vQ-B-wtypdKm5OWItc5w-3" edge="1">
                    <mxGeometry relative="1" as="geometry">
                        <mxPoint x="940" y="200" as="targetPoint"/>
                        <Array as="points">
                            <mxPoint x="1140" y="200"/>
                        </Array>
                    </mxGeometry>
                </mxCell>
                <mxCell id="vQ-B-wtypdKm5OWItc5w-135" style="edgeStyle=orthogonalEdgeStyle;shape=connector;rounded=0;orthogonalLoop=1;jettySize=auto;html=1;exitX=0.75;exitY=0;exitDx=0;exitDy=0;labelBackgroundColor=default;strokeColor=default;fontFamily=Helvetica;fontSize=14;fontColor=default;endArrow=none;endFill=0;" parent="1" source="vQ-B-wtypdKm5OWItc5w-3" edge="1">
                    <mxGeometry relative="1" as="geometry">
                        <mxPoint x="1260.538461538461" y="200" as="targetPoint"/>
                    </mxGeometry>
                </mxCell>
                <mxCell id="vQ-B-wtypdKm5OWItc5w-3" value="" style="fillColor=none;strokeColor=none;pointerEvents=0;fontStyle=0;html=1;whiteSpace=wrap;container=1;collapsible=0;childLayout=stackLayout;resizeParent=1;dropTarget=0;fontSize=13;spacing=0;strokeOpacity=100;rounded=1;absoluteArcSize=1;arcSize=9;strokeWidth=1.5;" parent="1" vertex="1">
                    <mxGeometry x="1080" y="375" width="240" height="223.75" as="geometry"/>
                </mxCell>
                <mxCell id="vQ-B-wtypdKm5OWItc5w-4" value="User" style="swimlane;html=1;whiteSpace=wrap;connectable=0;fontStyle=0;startSize=30;dropTarget=0;rounded=0;spacing=0;strokeColor=#3a414a;strokeOpacity=100;strokeWidth=1.5;container=1;pointerEvents=0;collapsible=0;recursiveResize=0;fontSize=16.7;fontColor=#3a414a;" parent="vQ-B-wtypdKm5OWItc5w-3" vertex="1">
                    <mxGeometry width="240" height="223.75" as="geometry"/>
                </mxCell>
                <mxCell id="vQ-B-wtypdKm5OWItc5w-5" value="" style="fillColor=none;strokeColor=none;pointerEvents=0;fontStyle=0;html=1;whiteSpace=wrap;container=1;collapsible=0;childLayout=stackLayout;resizeParent=1;dropTarget=0;fontSize=13;spacing=0;strokeOpacity=100;rounded=1;absoluteArcSize=1;arcSize=9;strokeWidth=1.5;" parent="1" vertex="1">
                    <mxGeometry x="629" y="765" width="180.75" height="110.41666666666667" as="geometry"/>
                </mxCell>
                <mxCell id="vQ-B-wtypdKm5OWItc5w-6" value="Review" style="swimlane;html=1;whiteSpace=wrap;connectable=0;fontStyle=0;startSize=30;dropTarget=0;rounded=0;spacing=0;strokeColor=#3a414a;strokeOpacity=100;strokeWidth=1.5;container=1;pointerEvents=0;collapsible=0;recursiveResize=0;fontSize=16.7;fontColor=#3a414a;" parent="vQ-B-wtypdKm5OWItc5w-5" vertex="1">
                    <mxGeometry width="180.75" height="110.41666666666667" as="geometry"/>
                </mxCell>
                <mxCell id="vQ-B-wtypdKm5OWItc5w-7" value="" style="fillColor=none;strokeColor=none;pointerEvents=0;fontStyle=0;html=1;whiteSpace=wrap;container=1;collapsible=0;childLayout=stackLayout;resizeParent=1;dropTarget=0;fontSize=13;spacing=0;strokeOpacity=100;rounded=1;absoluteArcSize=1;arcSize=9;strokeWidth=0.8;" parent="1" vertex="1">
                    <mxGeometry x="434" y="112" width="180.75" height="110.42" as="geometry"/>
                </mxCell>
                <mxCell id="vQ-B-wtypdKm5OWItc5w-8" value="Tag" style="swimlane;html=1;whiteSpace=wrap;connectable=0;fontStyle=0;startSize=30;dropTarget=0;rounded=0;spacing=0;strokeColor=#3a414a;strokeOpacity=100;strokeWidth=1.5;container=1;pointerEvents=0;collapsible=0;recursiveResize=0;fontSize=16.7;fontColor=#3a414a;" parent="vQ-B-wtypdKm5OWItc5w-7" vertex="1">
                    <mxGeometry width="140" height="110.42" as="geometry"/>
                </mxCell>
                <mxCell id="vQ-B-wtypdKm5OWItc5w-11" value="" style="fillColor=none;strokeColor=none;pointerEvents=0;fontStyle=0;html=1;whiteSpace=wrap;container=1;collapsible=0;childLayout=stackLayout;resizeParent=1;dropTarget=0;fontSize=13;spacing=0;strokeOpacity=100;rounded=1;absoluteArcSize=1;arcSize=9;strokeWidth=1.5;" parent="1" vertex="1">
                    <mxGeometry x="699" y="598" width="105" height="70" as="geometry"/>
                </mxCell>
                <mxCell id="vQ-B-wtypdKm5OWItc5w-12" value="Invited" style="swimlane;html=1;whiteSpace=wrap;connectable=0;fontStyle=0;startSize=30;dropTarget=0;rounded=0;spacing=0;strokeColor=#3a414a;strokeOpacity=100;strokeWidth=1.5;container=1;pointerEvents=0;collapsible=0;recursiveResize=0;fontSize=16.7;fontColor=#3a414a;" parent="vQ-B-wtypdKm5OWItc5w-11" vertex="1">
                    <mxGeometry width="105" height="70" as="geometry"/>
                </mxCell>
                <mxCell id="vQ-B-wtypdKm5OWItc5w-108" style="edgeStyle=orthogonalEdgeStyle;shape=connector;rounded=0;orthogonalLoop=1;jettySize=auto;html=1;exitX=0.75;exitY=1;exitDx=0;exitDy=0;entryX=0.111;entryY=-0.016;entryDx=0;entryDy=0;entryPerimeter=0;labelBackgroundColor=default;strokeColor=default;fontFamily=Helvetica;fontSize=14;fontColor=default;endArrow=none;endFill=0;dashed=1;" parent="1" source="vQ-B-wtypdKm5OWItc5w-17" target="vQ-B-wtypdKm5OWItc5w-81" edge="1">
                    <mxGeometry relative="1" as="geometry"/>
                </mxCell>
                <mxCell id="vQ-B-wtypdKm5OWItc5w-17" value="" style="fillColor=none;strokeColor=none;pointerEvents=0;fontStyle=0;html=1;whiteSpace=wrap;container=1;collapsible=0;childLayout=stackLayout;resizeParent=1;dropTarget=0;fontSize=13;spacing=0;strokeOpacity=100;rounded=1;absoluteArcSize=1;arcSize=9;strokeWidth=0.8;" parent="1" vertex="1">
                    <mxGeometry x="-46" y="109" width="180.75" height="110.41666666666667" as="geometry"/>
                </mxCell>
                <mxCell id="vQ-B-wtypdKm5OWItc5w-18" value="Country" style="swimlane;html=1;whiteSpace=wrap;connectable=0;fontStyle=0;startSize=30;dropTarget=0;rounded=0;spacing=0;strokeColor=#3a414a;strokeOpacity=100;strokeWidth=1.5;container=1;pointerEvents=0;collapsible=0;recursiveResize=0;fontSize=16.7;fontColor=#3a414a;" parent="vQ-B-wtypdKm5OWItc5w-17" vertex="1">
                    <mxGeometry width="180.75" height="110.41666666666667" as="geometry"/>
                </mxCell>
                <UserObject label="&lt;div style=&quot;display: flex; justify-content: flex-start; text-align: left; align-items: baseline; font-size: 0; line-height: 1.25;margin-top: -2px;&quot;&gt;&lt;span&gt;&lt;span style=&quot;font-size:16.7px;color:#3a414a;&quot;&gt;userID: Integer&lt;br&gt;&lt;/span&gt;&lt;/span&gt;&lt;/div&gt;&lt;div style=&quot;display: flex; justify-content: flex-start; text-align: left; align-items: baseline; font-size: 0; line-height: 1.25;margin-top: -2px;&quot;&gt;&lt;span&gt;&lt;span style=&quot;font-size:16.7px;color:#3a414a;&quot;&gt;name: String&lt;br&gt;&lt;/span&gt;&lt;/span&gt;&lt;/div&gt;&lt;div style=&quot;display: flex; justify-content: flex-start; text-align: left; align-items: baseline; font-size: 0; line-height: 1.25;margin-top: -2px;&quot;&gt;&lt;span&gt;&lt;span style=&quot;font-size:16.7px;color:#3a414a;&quot;&gt;email: Email&lt;br&gt;&lt;/span&gt;&lt;/span&gt;&lt;/div&gt;&lt;div style=&quot;display: flex; justify-content: flex-start; text-align: left; align-items: baseline; font-size: 0; line-height: 1.25;margin-top: -2px;&quot;&gt;&lt;span&gt;&lt;span style=&quot;font-size:16.7px;color:#3a414a;&quot;&gt;birthDate: Date&lt;br&gt;&lt;/span&gt;&lt;/span&gt;&lt;/div&gt;&lt;div style=&quot;display: flex; justify-content: flex-start; text-align: left; align-items: baseline; font-size: 0; line-height: 1.25;margin-top: -2px;&quot;&gt;&lt;span&gt;&lt;span style=&quot;font-size:16.7px;color:#3a414a;&quot;&gt;password: String&lt;br&gt;&lt;/span&gt;&lt;/span&gt;&lt;/div&gt;&lt;div style=&quot;display: flex; justify-content: flex-start; text-align: left; align-items: baseline; font-size: 0; line-height: 1.25;margin-top: -2px;&quot;&gt;&lt;span&gt;&lt;span style=&quot;font-size:16.7px;color:#3a414a;&quot;&gt;gender: ENUM&lt;br&gt;&lt;/span&gt;&lt;/span&gt;&lt;/div&gt;&lt;div style=&quot;display: flex; justify-content: flex-start; text-align: left; align-items: baseline; font-size: 0; line-height: 1.25;margin-top: -2px;&quot;&gt;&lt;span&gt;&lt;span style=&quot;font-size:16.7px;color:#3a414a;&quot;&gt;profilePic: String&lt;br&gt;&lt;/span&gt;&lt;/span&gt;&lt;/div&gt;&lt;div style=&quot;display: flex; justify-content: flex-start; text-align: left; align-items: baseline; font-size: 0; line-height: 1.25;margin-top: -2px;&quot;&gt;&lt;span&gt;&lt;span style=&quot;font-size:16.7px;color:#3a414a;&quot;&gt;admin: Boolean&lt;/span&gt;&lt;/span&gt;&lt;/div&gt;" lucidchartObjectId="GltYj_1O8BFN" id="vQ-B-wtypdKm5OWItc5w-19">
                    <mxCell style="html=1;overflow=block;blockSpacing=1;whiteSpace=wrap;fontSize=13;spacing=3.8;verticalAlign=middle;strokeOpacity=0;fillOpacity=0;rounded=1;absoluteArcSize=1;arcSize=9;fillColor=#ffffff;strokeWidth=0.8;" parent="1" vertex="1">
                        <mxGeometry x="1110" y="419" width="180" height="168" as="geometry"/>
                    </mxCell>
                </UserObject>
                <UserObject label="&lt;div align=&quot;left&quot;&gt;&lt;font style=&quot;font-size: 14px;&quot;&gt;{ userID != NULL, &lt;br&gt;name != NULL,&lt;br&gt;  email != NULL,&lt;br&gt;email UNIQUE, &lt;br&gt;birthDate != NULL,&lt;br&gt;password != NULL,&lt;br&gt;admin DEFAULT = False }&lt;br&gt;&lt;br&gt;&lt;/font&gt;&lt;/div&gt;" lucidchartObjectId="JqtYUnpGPmLg" id="vQ-B-wtypdKm5OWItc5w-22">
                    <mxCell style="html=1;overflow=block;blockSpacing=1;whiteSpace=wrap;fontSize=16.7;fontColor=#3a414a;spacing=3.8;strokeOpacity=0;fillOpacity=0;rounded=1;absoluteArcSize=1;arcSize=9;fillColor=#ffffff;strokeWidth=0.8;align=left;" parent="1" vertex="1">
                        <mxGeometry x="1400" y="513.5" width="233" height="150" as="geometry"/>
                    </mxCell>
                </UserObject>
                <UserObject label="rating: Integer" lucidchartObjectId="DMtYmaaaA0QE" id="vQ-B-wtypdKm5OWItc5w-31">
                    <mxCell style="html=1;overflow=block;blockSpacing=1;whiteSpace=wrap;fontSize=16.7;fontColor=#3a414a;align=left;spacing=3.8;verticalAlign=middle;strokeOpacity=0;fillOpacity=0;rounded=1;absoluteArcSize=1;arcSize=9;fillColor=#ffffff;strokeWidth=0.8;" parent="1" vertex="1">
                        <mxGeometry x="658" y="803" width="122" height="47" as="geometry"/>
                    </mxCell>
                </UserObject>
                <UserObject label="name: String&lt;div&gt;symbol: String&lt;br&gt;&lt;/div&gt;" lucidchartObjectId="BOtYXhs4C6T7" id="vQ-B-wtypdKm5OWItc5w-33">
                    <mxCell style="html=1;overflow=block;blockSpacing=1;whiteSpace=wrap;fontSize=16.7;fontColor=#3a414a;align=left;spacing=3.8;verticalAlign=middle;strokeOpacity=0;fillOpacity=0;rounded=1;absoluteArcSize=1;arcSize=9;fillColor=#ffffff;strokeWidth=0.8;" parent="1" vertex="1">
                        <mxGeometry x="443" y="152.5" width="147" height="47" as="geometry"/>
                    </mxCell>
                </UserObject>
                <UserObject label="*" lucidchartObjectId="VRtYjqYEEI7C" id="vQ-B-wtypdKm5OWItc5w-34">
                    <mxCell style="html=1;overflow=block;blockSpacing=1;whiteSpace=wrap;fontSize=23.3;fontColor=#3a414a;spacing=3.8;strokeOpacity=0;fillOpacity=0;rounded=1;absoluteArcSize=1;arcSize=17;fillColor=#ffffff;strokeWidth=0.8;" parent="1" vertex="1">
                        <mxGeometry x="660" y="542" width="17" height="16" as="geometry"/>
                    </mxCell>
                </UserObject>
                <UserObject label="*" lucidchartObjectId="jStYVsF5nFxg" id="vQ-B-wtypdKm5OWItc5w-35">
                    <mxCell style="html=1;overflow=block;blockSpacing=1;whiteSpace=wrap;fontSize=23.3;fontColor=#3a414a;spacing=3.8;strokeOpacity=0;fillOpacity=0;rounded=1;absoluteArcSize=1;arcSize=9;fillColor=#ffffff;strokeWidth=0.8;" parent="1" vertex="1">
                        <mxGeometry x="1063" y="542" width="17" height="16" as="geometry"/>
                    </mxCell>
                </UserObject>
                <UserObject label="*" lucidchartObjectId="AStYnSq~yiul" id="vQ-B-wtypdKm5OWItc5w-36">
                    <mxCell style="html=1;overflow=block;blockSpacing=1;whiteSpace=wrap;fontSize=23.3;fontColor=#3a414a;spacing=3.8;strokeOpacity=0;fillOpacity=0;rounded=1;absoluteArcSize=1;arcSize=9;fillColor=#ffffff;strokeWidth=0.8;" parent="1" vertex="1">
                        <mxGeometry x="660" y="410" width="17" height="16" as="geometry"/>
                    </mxCell>
                </UserObject>
                <UserObject label="*" lucidchartObjectId="IStYlcz1lWMe" id="vQ-B-wtypdKm5OWItc5w-37">
                    <mxCell style="html=1;overflow=block;blockSpacing=1;whiteSpace=wrap;fontSize=23.3;fontColor=#3a414a;spacing=3.8;strokeOpacity=0;fillOpacity=0;rounded=1;absoluteArcSize=1;arcSize=9;fillColor=#ffffff;strokeWidth=0.8;" parent="1" vertex="1">
                        <mxGeometry x="1063" y="410" width="17" height="16" as="geometry"/>
                    </mxCell>
                </UserObject>
                <UserObject label="&lt;font style=&quot;font-size: 14px;&quot;&gt;{ status DEFAULT = False }&lt;/font&gt;" lucidchartObjectId="7VtYpS5vZ2DZ" id="vQ-B-wtypdKm5OWItc5w-42">
                    <mxCell style="html=1;overflow=block;blockSpacing=1;whiteSpace=wrap;fontSize=16.7;fontColor=#3a414a;spacing=3.8;strokeOpacity=0;fillOpacity=0;rounded=1;absoluteArcSize=1;arcSize=9;fillColor=#ffffff;strokeWidth=0.8;" parent="1" vertex="1">
                        <mxGeometry x="825" y="638" width="215" height="30" as="geometry"/>
                    </mxCell>
                </UserObject>
                <UserObject label="&lt;font style=&quot;font-size: 14px;&quot;&gt;{ rating &amp;gt;= 0 AND rating &amp;lt;= 5 }&lt;/font&gt;" lucidchartObjectId="bYtYYkX8RNLf" id="vQ-B-wtypdKm5OWItc5w-49">
                    <mxCell style="html=1;overflow=block;blockSpacing=1;whiteSpace=wrap;fontSize=16.7;fontColor=#333333;spacing=3.8;strokeOpacity=0;fillOpacity=0;rounded=1;absoluteArcSize=1;arcSize=9;fillColor=#f5f5f5;strokeWidth=0.8;strokeColor=#666666;" parent="1" vertex="1">
                        <mxGeometry x="850" y="823" width="242" height="48" as="geometry"/>
                    </mxCell>
                </UserObject>
                <UserObject label="&lt;span&gt;&lt;span style=&quot;font-size:16.7px;color:#3a414a;&quot;&gt;qrcode: BLOB&lt;br&gt;&lt;/span&gt;&lt;/span&gt;&lt;div style=&quot;display: flex; justify-content: flex-start; text-align: left; align-items: baseline; font-size: 0; line-height: 1.25;margin-top: -2px;&quot;&gt;&lt;span&gt;&lt;/span&gt;&lt;/div&gt;" lucidchartObjectId="uZtY2C.hWUFV" id="vQ-B-wtypdKm5OWItc5w-52">
                    <mxCell style="html=1;overflow=block;blockSpacing=1;whiteSpace=wrap;fontSize=13;spacing=3.8;verticalAlign=middle;strokeOpacity=0;fillOpacity=0;rounded=1;absoluteArcSize=1;arcSize=9;fillColor=#ffffff;strokeWidth=0.8;" parent="1" vertex="1">
                        <mxGeometry x="708" y="990" width="193" height="80" as="geometry"/>
                    </mxCell>
                </UserObject>
                <UserObject label="name: String" lucidchartObjectId="S0tYDHSzcjw7" id="vQ-B-wtypdKm5OWItc5w-55">
                    <mxCell style="html=1;overflow=block;blockSpacing=1;whiteSpace=wrap;fontSize=16.7;fontColor=#3a414a;align=left;spacing=3.8;verticalAlign=middle;strokeOpacity=0;fillOpacity=0;rounded=1;absoluteArcSize=1;arcSize=9;fillColor=#ffffff;strokeWidth=0.8;" parent="1" vertex="1">
                        <mxGeometry x="223" y="147.6" width="122" height="47" as="geometry"/>
                    </mxCell>
                </UserObject>
                <UserObject label="name: String" lucidchartObjectId="q1tYy.iK9YgG" id="vQ-B-wtypdKm5OWItc5w-56">
                    <mxCell style="html=1;overflow=block;blockSpacing=1;whiteSpace=wrap;fontSize=16.7;fontColor=#3a414a;align=left;spacing=3.8;verticalAlign=middle;strokeOpacity=0;fillOpacity=0;rounded=1;absoluteArcSize=1;arcSize=9;fillColor=#ffffff;strokeWidth=0.8;" parent="1" vertex="1">
                        <mxGeometry x="-28" y="147.6" width="122" height="47" as="geometry"/>
                    </mxCell>
                </UserObject>
                <UserObject label="&lt;font style=&quot;font-size: 14px;&quot;&gt;1&lt;/font&gt;" lucidchartObjectId="W1tY4q1xqa1Q" id="vQ-B-wtypdKm5OWItc5w-57">
                    <mxCell style="html=1;overflow=block;blockSpacing=1;whiteSpace=wrap;fontSize=23.3;fontColor=#3a414a;spacing=3.8;strokeOpacity=0;fillOpacity=0;rounded=1;absoluteArcSize=1;arcSize=9;fillColor=#ffffff;strokeWidth=0.8;" parent="1" vertex="1">
                        <mxGeometry x="134.75" y="136" width="17" height="16" as="geometry"/>
                    </mxCell>
                </UserObject>
                <UserObject label="*" lucidchartObjectId="m2tYmQThnCb9" id="vQ-B-wtypdKm5OWItc5w-59">
                    <mxCell style="html=1;overflow=block;blockSpacing=1;whiteSpace=wrap;fontSize=23.3;fontColor=#3a414a;spacing=3.8;strokeOpacity=0;fillOpacity=0;rounded=1;absoluteArcSize=1;arcSize=9;fillColor=#ffffff;strokeWidth=0.8;" parent="1" vertex="1">
                        <mxGeometry x="192" y="161" width="17" height="16" as="geometry"/>
                    </mxCell>
                </UserObject>
                <mxCell id="vQ-B-wtypdKm5OWItc5w-103" style="edgeStyle=orthogonalEdgeStyle;shape=connector;rounded=0;orthogonalLoop=1;jettySize=auto;html=1;exitX=1;exitY=0;exitDx=0;exitDy=0;labelBackgroundColor=default;strokeColor=default;fontFamily=Helvetica;fontSize=14;fontColor=default;endArrow=none;endFill=0;dashed=1;" parent="1" source="vQ-B-wtypdKm5OWItc5w-62" edge="1">
                    <mxGeometry relative="1" as="geometry">
                        <mxPoint x="245.5714285714289" y="220" as="targetPoint"/>
                    </mxGeometry>
                </mxCell>
                <UserObject label="&lt;font style=&quot;font-size: 14px;&quot;&gt;{ name != NULL }&lt;/font&gt;" lucidchartObjectId="S2tYh2zHhF-u" id="vQ-B-wtypdKm5OWItc5w-62">
                    <mxCell style="html=1;overflow=block;blockSpacing=1;whiteSpace=wrap;fontSize=16.7;fontColor=#3a414a;spacing=3.8;strokeOpacity=0;fillOpacity=0;rounded=1;absoluteArcSize=1;arcSize=9;fillColor=#ffffff;strokeWidth=0.8;" parent="1" vertex="1">
                        <mxGeometry x="94" y="277" width="152" height="48" as="geometry"/>
                    </mxCell>
                </UserObject>
                <UserObject label="&lt;div align=&quot;left&quot;&gt;&lt;font style=&quot;font-size: 14px&quot;&gt;{ userID != NULL, &lt;br&gt;name != NULL,&lt;br&gt;&amp;nbsp;description != NULL,&lt;br&gt;capacity CHECK capacity &amp;gt; 0, &lt;br&gt;date != NULL,&lt;br&gt;price CHECK price &amp;gt;= 0,&lt;/font&gt;&lt;/div&gt;&lt;div align=&quot;left&quot;&gt;&lt;font style=&quot;font-size: 14px&quot;&gt;address != NULL, &lt;br&gt;&lt;/font&gt;&lt;/div&gt;&lt;div align=&quot;left&quot;&gt;&lt;font style=&quot;font-size: 14px&quot;&gt;avg_rating CHECK avg_rating &amp;gt;= 0 AND avg_rating &amp;lt;= 5,&lt;/font&gt;&lt;/div&gt;&lt;div align=&quot;left&quot;&gt;&lt;font style=&quot;font-size: 14px&quot;&gt;isPrivate DEFAULT False }&lt;br&gt;&lt;br&gt;&lt;br&gt;&lt;/font&gt;&lt;/div&gt;" lucidchartObjectId="V4tYJ.uMVKxk" id="vQ-B-wtypdKm5OWItc5w-67">
                    <mxCell style="html=1;overflow=block;blockSpacing=1;whiteSpace=wrap;fontSize=16.7;fontColor=#3a414a;spacing=3.8;strokeOpacity=0;fillOpacity=0;rounded=1;absoluteArcSize=1;arcSize=9;fillColor=#ffffff;strokeWidth=0.8;" parent="1" vertex="1">
                        <mxGeometry x="169.63" y="650" width="207.37" height="98" as="geometry"/>
                    </mxCell>
                </UserObject>
                <UserObject label="*" lucidchartObjectId="F6tY2ZlmXkN_" id="vQ-B-wtypdKm5OWItc5w-69">
                    <mxCell style="html=1;overflow=block;blockSpacing=1;whiteSpace=wrap;fontSize=23.3;fontColor=#3a414a;spacing=3.8;strokeOpacity=0;fillOpacity=0;rounded=1;absoluteArcSize=1;arcSize=9;fillColor=#ffffff;strokeWidth=0.8;" parent="1" vertex="1">
                        <mxGeometry x="460" y="352.5" width="17" height="16" as="geometry"/>
                    </mxCell>
                </UserObject>
                <mxCell id="vQ-B-wtypdKm5OWItc5w-70" value="" style="endArrow=none;dashed=1;html=1;rounded=0;entryX=0.25;entryY=1;entryDx=0;entryDy=0;" parent="1" edge="1">
                    <mxGeometry width="50" height="50" relative="1" as="geometry">
                        <mxPoint x="833" y="430" as="sourcePoint"/>
                        <mxPoint x="833.40625" y="403.19444444444434" as="targetPoint"/>
                    </mxGeometry>
                </mxCell>
                <mxCell id="vQ-B-wtypdKm5OWItc5w-71" value="" style="endArrow=none;dashed=1;html=1;rounded=0;exitX=0.25;exitY=0;exitDx=0;exitDy=0;" parent="1" source="vQ-B-wtypdKm5OWItc5w-11" edge="1">
                    <mxGeometry width="50" height="50" relative="1" as="geometry">
                        <mxPoint x="730.0500000000001" y="568.997" as="sourcePoint"/>
                        <mxPoint x="725" y="540" as="targetPoint"/>
                    </mxGeometry>
                </mxCell>
                <mxCell id="vQ-B-wtypdKm5OWItc5w-72" value="" style="endArrow=none;dashed=1;html=1;rounded=0;entryX=1;entryY=0.75;entryDx=0;entryDy=0;exitX=0;exitY=0.5;exitDx=0;exitDy=0;exitPerimeter=0;" parent="1" source="vQ-B-wtypdKm5OWItc5w-74" target="vQ-B-wtypdKm5OWItc5w-11" edge="1">
                    <mxGeometry width="50" height="50" relative="1" as="geometry">
                        <mxPoint x="830" y="673" as="sourcePoint"/>
                        <mxPoint x="823.21" y="598.75" as="targetPoint"/>
                    </mxGeometry>
                </mxCell>
                <mxCell id="vQ-B-wtypdKm5OWItc5w-76" value="" style="endArrow=none;dashed=1;html=1;rounded=0;entryX=1;entryY=0.75;entryDx=0;entryDy=0;exitX=0;exitY=0.5;exitDx=0;exitDy=0;exitPerimeter=0;" parent="1" source="vQ-B-wtypdKm5OWItc5w-75" target="vQ-B-wtypdKm5OWItc5w-5" edge="1">
                    <mxGeometry width="50" height="50" relative="1" as="geometry">
                        <mxPoint x="859" y="803" as="sourcePoint"/>
                        <mxPoint x="833" y="803.3333333333333" as="targetPoint"/>
                    </mxGeometry>
                </mxCell>
                <mxCell id="vQ-B-wtypdKm5OWItc5w-77" value="" style="endArrow=none;dashed=1;html=1;rounded=0;exitX=0.25;exitY=0;exitDx=0;exitDy=0;entryX=0.141;entryY=-0.5;entryDx=0;entryDy=0;entryPerimeter=0;" parent="1" source="vQ-B-wtypdKm5OWItc5w-5" edge="1">
                    <mxGeometry width="50" height="50" relative="1" as="geometry">
                        <mxPoint x="681.25" y="798" as="sourcePoint"/>
                        <mxPoint x="674.0250000000001" y="719" as="targetPoint"/>
                    </mxGeometry>
                </mxCell>
                <mxCell id="vQ-B-wtypdKm5OWItc5w-79" value="" style="endArrow=none;dashed=1;html=1;rounded=0;entryX=0.119;entryY=1.009;entryDx=0;entryDy=0;entryPerimeter=0;exitX=0;exitY=0;exitDx=213.5;exitDy=94;exitPerimeter=0;" parent="1" source="vQ-B-wtypdKm5OWItc5w-80" edge="1">
                    <mxGeometry width="50" height="50" relative="1" as="geometry">
                        <mxPoint x="342.84299999999985" y="688.548" as="sourcePoint"/>
                        <mxPoint x="447.55999999999995" y="600.7637500000001" as="targetPoint"/>
                        <Array as="points">
                            <mxPoint x="448" y="717"/>
                        </Array>
                    </mxGeometry>
                </mxCell>
                <mxCell id="vQ-B-wtypdKm5OWItc5w-87" value="" style="endArrow=none;dashed=1;html=1;rounded=0;exitX=0.5;exitY=0;exitDx=0;exitDy=0;entryX=0.271;entryY=0.214;entryDx=0;entryDy=0;entryPerimeter=0;" parent="1" edge="1">
                    <mxGeometry width="50" height="50" relative="1" as="geometry">
                        <mxPoint x="848" y="975" as="sourcePoint"/>
                        <mxPoint x="848.3800000000001" y="933.4280000000001" as="targetPoint"/>
                    </mxGeometry>
                </mxCell>
                <mxCell id="vQ-B-wtypdKm5OWItc5w-117" style="edgeStyle=orthogonalEdgeStyle;shape=connector;rounded=0;orthogonalLoop=1;jettySize=auto;html=1;exitX=1;exitY=0.5;exitDx=0;exitDy=0;labelBackgroundColor=default;strokeColor=default;fontFamily=Helvetica;fontSize=14;fontColor=default;endArrow=none;endFill=0;" parent="1" source="vQ-B-wtypdKm5OWItc5w-88" edge="1">
                    <mxGeometry relative="1" as="geometry">
                        <mxPoint x="210" y="180" as="targetPoint"/>
                        <Array as="points">
                            <mxPoint x="180" y="180"/>
                            <mxPoint x="209" y="179"/>
                        </Array>
                    </mxGeometry>
                </mxCell>
                <mxCell id="vQ-B-wtypdKm5OWItc5w-88" value="&amp;nbsp;" style="rhombus;whiteSpace=wrap;html=1;fillColor=#000000;" parent="1" vertex="1">
                    <mxGeometry x="134.75" y="173" width="25.25" height="13" as="geometry"/>
                </mxCell>
                <mxCell id="vQ-B-wtypdKm5OWItc5w-16" value="City" style="swimlane;html=1;whiteSpace=wrap;connectable=0;fontStyle=0;startSize=30;dropTarget=0;rounded=0;spacing=0;strokeColor=#3a414a;strokeOpacity=100;strokeWidth=1.5;container=1;pointerEvents=0;collapsible=0;recursiveResize=0;fontSize=16.7;fontColor=#3a414a;" parent="1" vertex="1">
                    <mxGeometry x="210" y="108.79" width="180.75" height="110.42" as="geometry"/>
                </mxCell>
                <mxCell id="vQ-B-wtypdKm5OWItc5w-89" style="edgeStyle=orthogonalEdgeStyle;rounded=0;orthogonalLoop=1;jettySize=auto;html=1;exitX=0.5;exitY=1;exitDx=0;exitDy=0;fontSize=14;" parent="1" source="vQ-B-wtypdKm5OWItc5w-57" target="vQ-B-wtypdKm5OWItc5w-57" edge="1">
                    <mxGeometry relative="1" as="geometry"/>
                </mxCell>
                <mxCell id="vQ-B-wtypdKm5OWItc5w-112" value="Comment" style="swimlane;html=1;whiteSpace=wrap;connectable=0;fontStyle=0;startSize=30;dropTarget=0;rounded=0;spacing=0;strokeColor=#3a414a;strokeOpacity=100;strokeWidth=1.5;container=1;pointerEvents=0;collapsible=0;recursiveResize=0;fontSize=16.7;fontColor=#3a414a;" parent="1" vertex="1">
                    <mxGeometry x="699" y="112" width="241" height="128" as="geometry"/>
                </mxCell>
                <UserObject label="text: String&lt;div&gt;date: Date&lt;/div&gt;&lt;div&gt;time: Time&lt;/div&gt;&lt;div&gt;&lt;br&gt;&lt;/div&gt;&lt;div&gt;&lt;br&gt;&lt;/div&gt;" lucidchartObjectId="q1tYy.iK9YgG" id="vQ-B-wtypdKm5OWItc5w-114">
                    <mxCell style="html=1;overflow=block;blockSpacing=1;whiteSpace=wrap;fontSize=16.7;fontColor=#3a414a;align=left;spacing=3.8;verticalAlign=middle;strokeOpacity=0;fillOpacity=0;rounded=1;absoluteArcSize=1;arcSize=9;fillColor=#ffffff;strokeWidth=0.8;" parent="1" vertex="1">
                        <mxGeometry x="708" y="160" width="122" height="48" as="geometry"/>
                    </mxCell>
                </UserObject>
                <mxCell id="vQ-B-wtypdKm5OWItc5w-120" style="edgeStyle=orthogonalEdgeStyle;shape=connector;rounded=0;orthogonalLoop=1;jettySize=auto;html=1;exitX=1;exitY=0.5;exitDx=0;exitDy=0;labelBackgroundColor=default;strokeColor=default;fontFamily=Helvetica;fontSize=14;fontColor=default;endArrow=none;endFill=0;" parent="1" source="vQ-B-wtypdKm5OWItc5w-116" edge="1">
                    <mxGeometry relative="1" as="geometry">
                        <mxPoint x="700" y="200" as="targetPoint"/>
                        <Array as="points">
                            <mxPoint x="625" y="200"/>
                        </Array>
                    </mxGeometry>
                </mxCell>
                <mxCell id="vQ-B-wtypdKm5OWItc5w-116" value="&amp;nbsp;" style="rhombus;whiteSpace=wrap;html=1;fillColor=#000000;rotation=-90;" parent="1" vertex="1">
                    <mxGeometry x="612.75" y="354" width="25.25" height="13" as="geometry"/>
                </mxCell>
                <mxCell id="vQ-B-wtypdKm5OWItc5w-121" value="&amp;nbsp;" style="text;whiteSpace=wrap;html=1;fontSize=14;fontFamily=Helvetica;fontColor=default;" parent="1" vertex="1">
                    <mxGeometry x="780" y="280" width="40" height="40" as="geometry"/>
                </mxCell>
                <UserObject label="&lt;font style=&quot;font-size: 14px;&quot;&gt;1&lt;/font&gt;" lucidchartObjectId="F6tY2ZlmXkN_" id="vQ-B-wtypdKm5OWItc5w-122">
                    <mxCell style="html=1;overflow=block;blockSpacing=1;whiteSpace=wrap;fontSize=23.3;fontColor=#3a414a;spacing=3.8;strokeOpacity=0;fillOpacity=0;rounded=1;absoluteArcSize=1;arcSize=17;fillColor=#ffffff;strokeWidth=0.8;" parent="1" vertex="1">
                        <mxGeometry x="460" y="219.21" width="17" height="16" as="geometry"/>
                    </mxCell>
                </UserObject>
                <UserObject label="&lt;font style=&quot;font-size: 14px;&quot;&gt;1&lt;/font&gt;" lucidchartObjectId="F6tY2ZlmXkN_" id="vQ-B-wtypdKm5OWItc5w-124">
                    <mxCell style="html=1;overflow=block;blockSpacing=1;whiteSpace=wrap;fontSize=23.3;fontColor=#3a414a;spacing=3.8;strokeOpacity=0;fillOpacity=0;rounded=1;absoluteArcSize=1;arcSize=17;fillColor=#ffffff;strokeWidth=0.8;" parent="1" vertex="1">
                        <mxGeometry x="608" y="322" width="17" height="16" as="geometry"/>
                    </mxCell>
                </UserObject>
                <UserObject label="*" lucidchartObjectId="AStYnSq~yiul" id="vQ-B-wtypdKm5OWItc5w-125">
                    <mxCell style="html=1;overflow=block;blockSpacing=1;whiteSpace=wrap;fontSize=23.3;fontColor=#3a414a;spacing=3.8;strokeOpacity=0;fillOpacity=0;rounded=1;absoluteArcSize=1;arcSize=9;fillColor=#ffffff;strokeWidth=0.8;" parent="1" vertex="1">
                        <mxGeometry x="682" y="183" width="17" height="16" as="geometry"/>
                    </mxCell>
                </UserObject>
                <mxCell id="vQ-B-wtypdKm5OWItc5w-126" value="&amp;nbsp;" style="text;whiteSpace=wrap;html=1;fontSize=14;fontFamily=Helvetica;fontColor=default;" parent="1" vertex="1">
                    <mxGeometry x="1050" y="210" width="40" height="40" as="geometry"/>
                </mxCell>
                <UserObject label="*" lucidchartObjectId="AStYnSq~yiul" id="vQ-B-wtypdKm5OWItc5w-132">
                    <mxCell style="html=1;overflow=block;blockSpacing=1;whiteSpace=wrap;fontSize=23.3;fontColor=#3a414a;spacing=3.8;strokeOpacity=0;fillOpacity=0;rounded=1;absoluteArcSize=1;arcSize=9;fillColor=#ffffff;strokeWidth=0.8;" parent="1" vertex="1">
                        <mxGeometry x="940" y="183" width="17" height="16" as="geometry"/>
                    </mxCell>
                </UserObject>
                <UserObject label="&lt;font style=&quot;font-size: 14px;&quot;&gt;1&lt;/font&gt;" lucidchartObjectId="F6tY2ZlmXkN_" id="vQ-B-wtypdKm5OWItc5w-134">
                    <mxCell style="html=1;overflow=block;blockSpacing=1;whiteSpace=wrap;fontSize=23.3;fontColor=#3a414a;spacing=3.8;strokeOpacity=0;fillOpacity=0;rounded=1;absoluteArcSize=1;arcSize=17;fillColor=#ffffff;strokeWidth=0.8;" parent="1" vertex="1">
                        <mxGeometry x="1140" y="347.6" width="17" height="16" as="geometry"/>
                    </mxCell>
                </UserObject>
                <mxCell id="vQ-B-wtypdKm5OWItc5w-136" value="Report" style="swimlane;html=1;whiteSpace=wrap;connectable=0;fontStyle=0;startSize=30;dropTarget=0;rounded=0;spacing=0;strokeColor=#3a414a;strokeOpacity=100;strokeWidth=1.5;container=1;pointerEvents=0;collapsible=0;recursiveResize=0;fontSize=16.7;fontColor=#3a414a;points=[[0,0,0,0,0],[0,0.25,0,0,0],[0,0.5,0,0,0],[0,0.75,0,0,0],[0,1,0,0,0],[0.25,0,0,0,0],[0.25,1,0,0,0],[0.5,0,0,0,0],[0.5,1,0,0,0],[0.75,0,0,0,0],[0.75,1,0,0,0],[1,0,0,0,0],[1,0.25,0,0,0],[1,0.5,0,0,0],[1,0.75,0,0,0],[1,1,0,0,0]];" parent="1" vertex="1">
                    <mxGeometry x="1181" y="62.62" width="200" height="136.38" as="geometry"/>
                </mxCell>
                <UserObject label="&lt;div align=&quot;left&quot;&gt;reason: ENUM&lt;/div&gt;&lt;div align=&quot;left&quot;&gt;date: Date&lt;/div&gt;&lt;div align=&quot;left&quot;&gt;time: Time&lt;br&gt;&lt;/div&gt;" lucidchartObjectId="GltYj_1O8BFN" id="vQ-B-wtypdKm5OWItc5w-138">
                    <mxCell style="html=1;overflow=block;blockSpacing=1;whiteSpace=wrap;fontSize=13;spacing=3.8;verticalAlign=middle;strokeOpacity=0;fillOpacity=0;rounded=1;absoluteArcSize=1;arcSize=9;fillColor=#ffffff;strokeWidth=0.8;align=left;" parent="1" vertex="1">
                        <mxGeometry x="1189.5" y="93.39" width="130" height="101.21" as="geometry"/>
                    </mxCell>
                </UserObject>
                <UserObject label="&lt;font style=&quot;font-size: 14px;&quot;&gt;1&lt;/font&gt;" lucidchartObjectId="F6tY2ZlmXkN_" id="vQ-B-wtypdKm5OWItc5w-140">
                    <mxCell style="html=1;overflow=block;blockSpacing=1;whiteSpace=wrap;fontSize=23.3;fontColor=#3a414a;spacing=3.8;strokeOpacity=0;fillOpacity=0;rounded=1;absoluteArcSize=1;arcSize=17;fillColor=#ffffff;strokeWidth=0.8;" parent="1" vertex="1">
                        <mxGeometry x="1240" y="347.6" width="17" height="16" as="geometry"/>
                    </mxCell>
                </UserObject>
                <UserObject label="*" lucidchartObjectId="AStYnSq~yiul" id="vQ-B-wtypdKm5OWItc5w-141">
                    <mxCell style="html=1;overflow=block;blockSpacing=1;whiteSpace=wrap;fontSize=23.3;fontColor=#3a414a;spacing=3.8;strokeOpacity=0;fillOpacity=0;rounded=1;absoluteArcSize=1;arcSize=9;fillColor=#ffffff;strokeWidth=0.8;" parent="1" vertex="1">
                        <mxGeometry x="1240" y="203" width="17" height="16" as="geometry"/>
                    </mxCell>
                </UserObject>
                <mxCell id="vQ-B-wtypdKm5OWItc5w-144" style="edgeStyle=orthogonalEdgeStyle;shape=connector;rounded=0;orthogonalLoop=1;jettySize=auto;html=1;labelBackgroundColor=default;strokeColor=default;fontFamily=Helvetica;fontSize=14;fontColor=default;endArrow=none;endFill=0;" parent="1" edge="1">
                    <mxGeometry relative="1" as="geometry">
                        <mxPoint x="1180" y="150" as="targetPoint"/>
                        <mxPoint x="940" y="150" as="sourcePoint"/>
                        <Array as="points">
                            <mxPoint x="1050" y="150"/>
                            <mxPoint x="1170" y="150"/>
                        </Array>
                    </mxGeometry>
                </mxCell>
                <UserObject label="&lt;font style=&quot;font-size: 14px;&quot;&gt;1&lt;/font&gt;" lucidchartObjectId="F6tY2ZlmXkN_" id="vQ-B-wtypdKm5OWItc5w-145">
                    <mxCell style="html=1;overflow=block;blockSpacing=1;whiteSpace=wrap;fontSize=23.3;fontColor=#3a414a;spacing=3.8;strokeOpacity=0;fillOpacity=0;rounded=1;absoluteArcSize=1;arcSize=17;fillColor=#ffffff;strokeWidth=0.8;" parent="1" vertex="1">
                        <mxGeometry x="940" y="122.81000000000003" width="17" height="16" as="geometry"/>
                    </mxCell>
                </UserObject>
                <UserObject label="*" lucidchartObjectId="AStYnSq~yiul" id="vQ-B-wtypdKm5OWItc5w-146">
                    <mxCell style="html=1;overflow=block;blockSpacing=1;whiteSpace=wrap;fontSize=23.3;fontColor=#3a414a;spacing=3.8;strokeOpacity=0;fillOpacity=0;rounded=1;absoluteArcSize=1;arcSize=9;fillColor=#ffffff;strokeWidth=0.8;" parent="1" vertex="1">
                        <mxGeometry x="1164" y="130" width="17" height="16" as="geometry"/>
                    </mxCell>
                </UserObject>
                <mxCell id="vQ-B-wtypdKm5OWItc5w-150" style="edgeStyle=orthogonalEdgeStyle;shape=connector;rounded=0;orthogonalLoop=1;jettySize=auto;html=1;exitX=0;exitY=0.5;exitDx=0;exitDy=0;exitPerimeter=0;labelBackgroundColor=default;strokeColor=default;fontFamily=Helvetica;fontSize=14;fontColor=default;endArrow=none;endFill=0;dashed=1;" parent="1" source="vQ-B-wtypdKm5OWItc5w-147" edge="1">
                    <mxGeometry relative="1" as="geometry">
                        <mxPoint x="1380" y="109.83333333333337" as="targetPoint"/>
                    </mxGeometry>
                </mxCell>
                <mxCell id="vQ-B-wtypdKm5OWItc5w-147" value="" style="shape=note;whiteSpace=wrap;html=1;backgroundOutline=1;darkOpacity=0.05;fontFamily=Helvetica;fontSize=14;fillColor=#f5f5f5;fontColor=#333333;strokeColor=#666666;" parent="1" vertex="1">
                    <mxGeometry x="1420" y="60" width="240" height="100" as="geometry"/>
                </mxCell>
                <UserObject label="&lt;div&gt;&lt;font style=&quot;font-size: 14px;&quot;&gt;{ reason != NULL,&lt;/font&gt;&lt;/div&gt;&lt;div&gt;&lt;font size=&quot;3&quot;&gt;date DEFAULT = now,&lt;/font&gt;&lt;/div&gt;&lt;div&gt;&lt;font size=&quot;3&quot;&gt;time DEFAULT = now&lt;br&gt;&lt;/font&gt;&lt;/div&gt;" lucidchartObjectId="JqtYUnpGPmLg" id="vQ-B-wtypdKm5OWItc5w-148">
                    <mxCell style="html=1;overflow=block;blockSpacing=1;whiteSpace=wrap;fontSize=16.7;fontColor=#3a414a;spacing=3.8;strokeOpacity=0;fillOpacity=0;rounded=1;absoluteArcSize=1;arcSize=9;fillColor=#ffffff;strokeWidth=0.8;align=left;" parent="1" vertex="1">
                        <mxGeometry x="1440" y="35" width="233" height="150" as="geometry"/>
                    </mxCell>
                </UserObject>
                <UserObject label="*" lucidchartObjectId="F6tY2ZlmXkN_" id="TI2klEOtYl0a5Y6k5_6i-3">
                    <mxCell style="html=1;overflow=block;blockSpacing=1;whiteSpace=wrap;fontSize=23.3;fontColor=#3a414a;spacing=3.8;strokeOpacity=0;fillOpacity=0;rounded=1;absoluteArcSize=1;arcSize=17;fillColor=#ffffff;strokeWidth=0.8;" parent="1" vertex="1">
                        <mxGeometry x="403" y="410" width="17" height="16" as="geometry"/>
                    </mxCell>
                </UserObject>
                <UserObject label="&lt;font style=&quot;font-size: 14px;&quot;&gt;1&lt;/font&gt;" lucidchartObjectId="F6tY2ZlmXkN_" id="TI2klEOtYl0a5Y6k5_6i-4">
                    <mxCell style="html=1;overflow=block;blockSpacing=1;whiteSpace=wrap;fontSize=23.3;fontColor=#3a414a;spacing=3.8;strokeOpacity=0;fillOpacity=0;rounded=1;absoluteArcSize=1;arcSize=17;fillColor=#ffffff;strokeWidth=0.8;" parent="1" vertex="1">
                        <mxGeometry x="360" y="219" width="17" height="16" as="geometry"/>
                    </mxCell>
                </UserObject>
                <UserObject label="*" lucidchartObjectId="VRtYjqYEEI7C" id="TI2klEOtYl0a5Y6k5_6i-7">
                    <mxCell style="html=1;overflow=block;blockSpacing=1;whiteSpace=wrap;fontSize=23.3;fontColor=#3a414a;spacing=3.8;strokeOpacity=0;fillOpacity=0;rounded=1;absoluteArcSize=1;arcSize=0;fillColor=#ffffff;strokeWidth=0.8;" parent="1" vertex="1">
                        <mxGeometry x="1147" y="598.75" width="17" height="16" as="geometry"/>
                    </mxCell>
                </UserObject>
                <UserObject label="&lt;font style=&quot;font-size: 14px;&quot;&gt;1&lt;/font&gt;" lucidchartObjectId="F6tY2ZlmXkN_" id="TI2klEOtYl0a5Y6k5_6i-8">
                    <mxCell style="html=1;overflow=block;blockSpacing=1;whiteSpace=wrap;fontSize=23.3;fontColor=#3a414a;spacing=3.8;strokeOpacity=0;fillOpacity=0;rounded=1;absoluteArcSize=1;arcSize=17;fillColor=#ffffff;strokeWidth=0.8;" parent="1" vertex="1">
                        <mxGeometry x="608" y="598.75" width="17" height="16" as="geometry"/>
                    </mxCell>
                </UserObject>
                <UserObject label="*" lucidchartObjectId="VRtYjqYEEI7C" id="TI2klEOtYl0a5Y6k5_6i-9">
                    <mxCell style="html=1;overflow=block;blockSpacing=1;whiteSpace=wrap;fontSize=23.3;fontColor=#3a414a;spacing=3.8;strokeOpacity=0;fillOpacity=0;rounded=1;absoluteArcSize=1;arcSize=0;fillColor=#ffffff;strokeWidth=0.8;" parent="1" vertex="1">
                        <mxGeometry x="1266.5" y="598.75" width="17" height="16" as="geometry"/>
                    </mxCell>
                </UserObject>
                <UserObject label="*" lucidchartObjectId="VRtYjqYEEI7C" id="TI2klEOtYl0a5Y6k5_6i-10">
                    <mxCell style="html=1;overflow=block;blockSpacing=1;whiteSpace=wrap;fontSize=23.3;fontColor=#3a414a;spacing=3.8;strokeOpacity=0;fillOpacity=0;rounded=1;absoluteArcSize=1;arcSize=0;fillColor=#ffffff;strokeWidth=0.8;" parent="1" vertex="1">
                        <mxGeometry x="490" y="610" width="17" height="16" as="geometry"/>
                    </mxCell>
                </UserObject>
                <mxCell id="TI2klEOtYl0a5Y6k5_6i-11" value="Event Host" style="swimlane;html=1;whiteSpace=wrap;connectable=0;fontStyle=0;startSize=30;dropTarget=0;rounded=0;spacing=0;strokeColor=#3a414a;strokeOpacity=100;strokeWidth=1.5;container=1;pointerEvents=0;collapsible=0;recursiveResize=0;fontSize=16.7;fontColor=#3a414a;" parent="1" vertex="1">
                    <mxGeometry x="780" y="330" width="105" height="70" as="geometry"/>
                </mxCell>
                <mxCell id="TI2klEOtYl0a5Y6k5_6i-15" value="" style="endArrow=none;dashed=1;html=1;dashPattern=1 3;strokeWidth=2;rounded=0;entryX=0.5;entryY=1;entryDx=0;entryDy=0;entryPerimeter=0;exitX=0.5;exitY=0;exitDx=0;exitDy=0;exitPerimeter=0;" parent="1" source="TI2klEOtYl0a5Y6k5_6i-16" target="vQ-B-wtypdKm5OWItc5w-111" edge="1">
                    <mxGeometry width="50" height="50" relative="1" as="geometry">
                        <mxPoint x="1500" y="720" as="sourcePoint"/>
                        <mxPoint x="1130" y="580" as="targetPoint"/>
                        <Array as="points"/>
                    </mxGeometry>
                </mxCell>
                <mxCell id="TI2klEOtYl0a5Y6k5_6i-16" value="&lt;div&gt;&amp;lt;ENUM&amp;gt;&lt;/div&gt;&lt;div&gt;Gender&lt;br&gt;&lt;/div&gt;&lt;div align=&quot;left&quot;&gt;&lt;br&gt;&lt;/div&gt;&lt;div align=&quot;left&quot;&gt;'M' = Male&lt;/div&gt;&lt;div align=&quot;left&quot;&gt;'F' = Female&lt;br&gt;&lt;/div&gt;&lt;div align=&quot;left&quot;&gt;'O' = Other&lt;br&gt;&lt;/div&gt;" style="shape=note;whiteSpace=wrap;html=1;backgroundOutline=1;darkOpacity=0.05;fontFamily=Helvetica;fontSize=14;fillColor=#f5f5f5;fontColor=#333333;strokeColor=#666666;" parent="1" vertex="1">
                    <mxGeometry x="1410" y="718.71" width="140" height="131.29" as="geometry"/>
                </mxCell>
                <mxCell id="TI2klEOtYl0a5Y6k5_6i-17" value="&lt;div&gt;&amp;lt;ENUM&amp;gt;&lt;/div&gt;&lt;div&gt;Reason&lt;br&gt;&lt;/div&gt;&lt;div&gt;&lt;br&gt;&lt;/div&gt;&lt;div align=&quot;left&quot;&gt;&lt;br&gt;&lt;/div&gt;&lt;div align=&quot;left&quot;&gt;Dangerous / Illegal&lt;/div&gt;&lt;div align=&quot;left&quot;&gt;Discriminatory &lt;br&gt;&lt;/div&gt;&lt;div align=&quot;left&quot;&gt;Misinformation&lt;/div&gt;&lt;div align=&quot;left&quot;&gt;Disrespectful&lt;/div&gt;&lt;div align=&quot;left&quot;&gt;Other&lt;br&gt;&lt;/div&gt;" style="shape=note;whiteSpace=wrap;html=1;backgroundOutline=1;darkOpacity=0.05;fontFamily=Helvetica;fontSize=14;fillColor=#f5f5f5;fontColor=#333333;strokeColor=#666666;" parent="1" vertex="1">
                    <mxGeometry x="1461" y="199.5" width="158" height="171.29" as="geometry"/>
                </mxCell>
                <mxCell id="TI2klEOtYl0a5Y6k5_6i-20" value="" style="endArrow=none;dashed=1;html=1;rounded=0;exitX=0.5;exitY=0;exitDx=0;exitDy=0;exitPerimeter=0;" parent="1" source="TI2klEOtYl0a5Y6k5_6i-17" edge="1">
                    <mxGeometry width="50" height="50" relative="1" as="geometry">
                        <mxPoint x="1491.5" y="211" as="sourcePoint"/>
                        <mxPoint x="1541.5" y="161" as="targetPoint"/>
                    </mxGeometry>
                </mxCell>
                <mxCell id="QtLpKy4S513my2_FR1Nx-1" value="Photo" style="swimlane;html=1;whiteSpace=wrap;connectable=0;fontStyle=0;startSize=30;dropTarget=0;rounded=0;spacing=0;strokeColor=#3a414a;strokeOpacity=100;strokeWidth=1.5;container=1;pointerEvents=0;collapsible=0;recursiveResize=0;fontSize=16.7;fontColor=#3a414a;" parent="1" vertex="1">
                    <mxGeometry x="142" y="451.25" width="168" height="108.75" as="geometry"/>
                </mxCell>
                <mxCell id="QtLpKy4S513my2_FR1Nx-3" style="edgeStyle=orthogonalEdgeStyle;rounded=0;orthogonalLoop=1;jettySize=auto;html=1;exitX=0;exitY=0.75;exitDx=0;exitDy=0;fontSize=14;endArrow=none;endFill=0;" parent="1" source="vQ-B-wtypdKm5OWItc5w-1" edge="1">
                    <mxGeometry relative="1" as="geometry">
                        <mxPoint x="310" y="543" as="targetPoint"/>
                        <mxPoint x="345" y="549.9375" as="sourcePoint"/>
                    </mxGeometry>
                </mxCell>
                <UserObject label="&lt;font style=&quot;font-size: 16px;&quot;&gt;path: String&lt;/font&gt;" lucidchartObjectId="AttYla0XmqQ0" id="QtLpKy4S513my2_FR1Nx-4">
                    <mxCell style="html=1;overflow=block;blockSpacing=1;whiteSpace=wrap;fontSize=13;spacing=3.8;verticalAlign=middle;strokeOpacity=0;fillOpacity=0;rounded=1;absoluteArcSize=1;arcSize=9;fillColor=#ffffff;strokeWidth=0.8;" parent="1" vertex="1">
                        <mxGeometry x="151.75" y="487" width="90" height="63" as="geometry"/>
                    </mxCell>
                </UserObject>
                <mxCell id="vQ-B-wtypdKm5OWItc5w-14" value="Ticket" style="swimlane;html=1;whiteSpace=wrap;connectable=0;fontStyle=0;startSize=30;dropTarget=0;rounded=0;spacing=0;strokeColor=#3a414a;strokeOpacity=100;strokeWidth=1.5;container=1;pointerEvents=0;collapsible=0;recursiveResize=0;fontSize=16.7;fontColor=#3a414a;" parent="1" vertex="1">
                    <mxGeometry x="730" y="970" width="240" height="100" as="geometry"/>
                </mxCell>
                <UserObject label="&lt;font style=&quot;font-size: 14px;&quot;&gt;1&lt;/font&gt;" lucidchartObjectId="F6tY2ZlmXkN_" id="4">
                    <mxCell style="html=1;overflow=block;blockSpacing=1;whiteSpace=wrap;fontSize=23.3;fontColor=#3a414a;spacing=3.8;strokeOpacity=0;fillOpacity=0;rounded=1;absoluteArcSize=1;arcSize=17;fillColor=#ffffff;strokeWidth=0.8;" parent="1" vertex="1">
                        <mxGeometry x="403" y="510.5" width="17" height="16" as="geometry"/>
                    </mxCell>
                </UserObject>
                <UserObject label="*" lucidchartObjectId="VRtYjqYEEI7C" id="6">
                    <mxCell style="html=1;overflow=block;blockSpacing=1;whiteSpace=wrap;fontSize=23.3;fontColor=#3a414a;spacing=3.8;strokeOpacity=0;fillOpacity=0;rounded=1;absoluteArcSize=1;arcSize=0;fillColor=#ffffff;strokeWidth=0.8;" parent="1" vertex="1">
                        <mxGeometry x="310" y="520" width="17" height="16" as="geometry"/>
                    </mxCell>
                </UserObject>
                <mxCell id="7" value="&lt;font style=&quot;font-size: 14px&quot;&gt;eventID: Integer&lt;br&gt;name: String&lt;br&gt;description: String&lt;br&gt;capacity: Integer&lt;br&gt;date: Time&lt;br&gt;price: Float&lt;br&gt;address: String&lt;br&gt;avg_rating; Integer&lt;br&gt;isPrivate: Bool&lt;/font&gt;" style="text;html=1;strokeColor=none;fillColor=none;align=left;verticalAlign=middle;whiteSpace=wrap;rounded=0;" vertex="1" parent="1">
                    <mxGeometry x="434" y="408" width="266" height="190" as="geometry"/>
                </mxCell>
            </root>
        </mxGraphModel>
    </diagram>
</mxfile>